<svg width="533" height="529" viewBox="0 0 533 529" fill="none" xmlns="http://www.w3.org/2000/svg">
<g clip-path="url(#clip0_39_642)">
<path d="M377.3 399.794C368.427 396.981 360.07 392.695 352.567 387.111C323.707 366.656 299.249 340.415 280.692 309.993C269.436 292.288 259.397 273.81 250.648 254.691C247.695 250.044 246.667 244.395 247.786 238.977C248.906 233.56 252.082 228.813 256.624 225.772C260.398 223.203 264.868 221.902 269.405 222.052C274.551 222.052 275.049 222.052 273.223 216.471L258.782 178.588C256.84 174.582 256.227 170.042 257.035 165.65C257.843 161.259 260.029 157.253 263.263 154.236C266.533 151.055 270.726 149.039 275.215 148.49C279.704 147.941 284.246 148.889 288.162 151.191C288.162 151.191 288.162 151.191 289.158 151.191C285.506 139.184 281.356 127.346 278.036 115.169C277.22 112.35 277.015 109.383 277.435 106.474C277.854 103.566 278.889 100.785 280.468 98.3243C282.047 95.8635 284.131 93.7815 286.577 92.2224C289.024 90.6632 291.773 89.6642 294.636 89.2944C299.533 88.1844 304.658 88.9047 309.077 91.3238L325.676 99.9488C328.498 101.471 329.826 101.133 330.656 97.5811C334.213 75.5896 339.884 54.0078 347.587 33.1473C351.226 23.0561 356.878 13.8427 364.186 6.08849C365.968 4.19574 368.107 2.68964 370.475 1.66078C372.842 0.631923 375.39 0.101562 377.964 0.101563C380.538 0.101562 383.085 0.631923 385.453 1.66078C387.82 2.68964 389.959 4.19574 391.741 6.08849C400.912 15.0035 408.15 25.7764 412.988 37.7135C421.291 55.3428 428.067 73.6771 433.239 92.5076C434.899 98.2576 434.899 98.2576 439.879 95.2135L454.984 85.912C458.49 83.6893 462.578 82.6115 466.702 82.8231C470.826 83.0347 474.788 84.5255 478.057 87.0958C481.39 89.4489 483.938 92.7823 485.362 96.6504C486.786 100.519 487.017 104.737 486.024 108.743C483.7 118.552 481.211 128.361 478.887 138.169C478.887 140.03 478.057 142.059 477.559 144.258C479.717 144.258 480.879 143.412 482.373 142.736C485.855 141.226 489.687 140.759 493.42 141.388C497.153 142.017 500.634 143.716 503.453 146.287C506.496 148.627 508.773 151.85 509.988 155.531C511.202 159.213 511.297 163.182 510.259 166.919C507.271 177.912 503.62 188.736 500.466 199.559C499.47 202.941 498.308 206.155 497.478 209.368C496.648 212.581 497.478 214.611 501.628 214.272C504.573 213.881 507.567 214.144 510.403 215.042C513.239 215.941 515.851 217.455 518.059 219.479C520.267 221.504 522.019 223.991 523.194 226.771C524.369 229.55 524.939 232.556 524.867 235.581C524.797 238.729 524.12 241.832 522.875 244.713C507.403 285.716 485.297 323.787 457.474 357.346C443.892 373.421 427.587 386.882 409.336 397.088C409.336 397.088 408.174 397.088 407.51 397.088C397.919 400.992 387.412 401.933 377.3 399.794Z" fill="#033F59"/>
<path d="M396.721 288.515L399.875 285.302C413.818 270.42 427.595 255.368 441.373 240.317C442.473 238.831 443.953 237.683 445.651 236.996C447.349 236.31 449.2 236.113 451 236.427C452.789 236.743 454.447 237.586 455.771 238.851C457.095 240.117 458.027 241.749 458.45 243.548C458.874 245.347 458.772 247.232 458.156 248.972C457.54 250.712 456.437 252.23 454.984 253.339C437.057 272.787 419.296 292.405 401.203 311.853C399.931 313.049 398.942 314.521 398.31 316.162C397.678 317.802 397.418 319.567 397.551 321.324C398.381 339.42 398.879 357.515 399.377 375.611C399.377 381.022 399.376 381.022 404.356 378.147C421.454 367.445 436.522 353.697 448.842 337.559C472.204 307.286 491.157 273.737 505.113 237.949C506.939 233.721 505.113 232.537 501.129 232.875C497.613 233.384 494.027 232.956 490.721 231.634C487.415 230.313 484.501 228.142 482.262 225.333C480.023 222.524 478.535 219.172 477.944 215.604C477.352 212.036 477.677 208.373 478.887 204.971C482.87 191.611 487.02 178.42 491.004 165.228C491.004 163.706 492.664 162.015 491.004 160.662C489.344 159.309 487.684 160.662 486.356 161.677L471.085 172.839C466.603 176.221 462.121 179.942 456.478 176.052C450.834 172.162 452.494 166.074 453.822 160.493C458.304 143.581 462.619 124.978 466.935 107.39C466.935 105.53 468.595 103.331 466.935 101.978C465.275 100.625 463.449 101.978 461.789 103.5L436.227 119.059C428.093 123.964 422.449 121.596 419.627 112.464C414.329 92.4431 407.787 72.7858 400.04 53.6107C395.784 42.8993 390.206 32.7836 383.441 23.5078C378.959 17.5887 376.47 17.9269 372.32 23.5078C366.923 32.5833 362.631 42.2944 359.538 52.4269C352.515 73.0746 346.967 94.2131 342.939 115.677C342.879 117.375 342.364 119.025 341.449 120.446C340.533 121.867 339.253 123.005 337.748 123.738C336.242 124.47 334.569 124.767 332.909 124.599C331.249 124.43 329.666 123.801 328.332 122.78C319.368 118.383 310.239 114.324 301.607 109.25C299.781 108.067 297.623 106.037 295.465 107.728C293.308 109.42 295.465 111.956 295.465 113.986C301.109 132.42 306.919 150.684 312.895 168.949C313.76 170.968 313.933 173.226 313.385 175.358C312.837 177.49 311.601 179.371 309.875 180.7C308.15 182.028 306.035 182.726 303.873 182.68C301.71 182.635 299.626 181.849 297.956 180.449L280.028 169.118C278.368 168.103 276.542 165.736 274.551 167.596C272.559 169.456 274.551 171.655 274.551 173.515C279.53 186.706 284.676 199.559 289.324 212.92C290.423 216.085 290.753 219.474 290.287 222.797C289.821 226.121 288.573 229.28 286.648 232.005C284.724 234.73 282.181 236.94 279.236 238.447C276.291 239.953 273.031 240.711 269.737 240.655C263.097 240.655 262.599 240.655 265.587 247.419C280.619 279.169 299.647 308.789 322.19 335.53C336.687 353.226 354.524 367.776 374.644 378.317C379.291 380.684 379.457 380.515 379.291 375.442C379.291 357.177 377.964 338.912 377.466 320.647C377.525 319.114 377.242 317.587 376.638 316.18C376.035 314.774 375.125 313.526 373.98 312.53C357.38 296.633 340.781 280.567 324.182 264.5C320.862 261.287 317.543 258.243 314.555 254.861C313.023 253.252 312.167 251.098 312.167 248.857C312.167 246.616 313.023 244.463 314.555 242.853C316.086 241.126 318.196 240.047 320.47 239.827C322.744 239.608 325.016 240.266 326.838 241.67C328.127 242.591 329.348 243.608 330.49 244.714L371.822 284.287C372.891 285.797 374.401 286.922 376.138 287.5C376.553 285.778 376.553 283.98 376.138 282.258C376.138 263.486 374.81 244.714 374.478 226.111C374.519 224.252 374.153 222.407 373.406 220.71C372.66 219.013 371.551 217.508 370.162 216.302C360.368 207.339 350.907 198.206 341.445 188.905C339.996 187.843 338.877 186.377 338.224 184.685C337.57 182.992 337.408 181.143 337.759 179.359C338.109 177.576 338.956 175.932 340.198 174.626C341.441 173.32 343.026 172.406 344.765 171.993C346.489 171.544 348.302 171.591 350.001 172.129C351.701 172.666 353.221 173.673 354.393 175.037L372.32 191.949C373.648 190.258 372.32 188.736 372.32 187.383C372.32 173.684 371.49 159.986 371.158 146.287C371.158 139.522 374.312 135.295 379.955 134.956C385.599 134.618 389.251 138.677 389.583 145.611L391.077 185.692C391.077 187.383 391.077 189.412 392.239 191.103L397.219 185.861C401.368 181.295 405.518 176.559 410 171.993C411.428 170.514 413.306 169.575 415.328 169.329C417.349 169.083 419.392 169.545 421.121 170.64C422.772 171.551 424.086 172.984 424.864 174.723C425.643 176.463 425.844 178.413 425.437 180.28C424.985 182.7 423.76 184.901 421.952 186.537L395.725 215.118C394.51 216.277 393.566 217.7 392.963 219.28C392.359 220.861 392.112 222.559 392.239 224.25C392.239 238.118 393.069 251.986 393.567 265.853C396.057 273.971 396.555 280.905 396.721 288.515Z" fill="#CEBCB5"/>
<path d="M62.0809 517.331C51.3623 513.391 42.013 506.335 35.1901 497.037C25.572 486.981 18.3088 474.84 13.9432 461.522C12.9473 458.478 11.9514 455.434 10.7894 452.221C8.88229 447.231 8.02563 441.888 8.27523 436.538C8.52482 431.189 9.87503 425.953 12.2382 421.169C14.6014 416.386 17.925 412.162 21.9933 408.771C26.0616 405.38 30.7839 402.898 35.8541 401.486L73.0364 396.243C82 393.706 102.915 394.214 109.72 387.787C125.143 371.469 143.157 357.919 163.004 347.706C223.923 313.883 247.162 336.714 295.797 327.919C344.433 319.125 350.907 300.353 361.032 315.912C377.631 341.956 319.866 366.647 305.259 366.647C290.652 366.647 285.506 390.662 285.506 390.662C304.556 400.362 324.38 408.396 344.765 414.677C411.162 437 476.563 407.236 485.858 387.449C495.154 367.662 511.089 353.625 523.206 367.155C535.324 380.684 490.008 447.993 426.101 474.375C362.194 500.758 312.563 501.772 261.437 480.802C218.611 463.89 158.688 481.816 145.243 485.03C130.278 489.044 116.602 496.972 105.571 508.03C101.303 512.203 96.203 515.391 90.6173 517.376C85.0316 519.36 79.0918 520.095 73.2023 519.53C69.4142 519.316 65.6725 518.577 62.0809 517.331Z" fill="#CEBCB5" stroke="#033F59" stroke-width="20" stroke-miterlimit="10"/>
</g>
<defs>
<clipPath id="clip0_39_642">
<rect width="533" height="529" fill="white"/>
</clipPath>
</defs>
</svg>
