<svg width="640" height="534" viewBox="0 0 640 534" fill="none" xmlns="http://www.w3.org/2000/svg">
<g clip-path="url(#clip0_39_612)">
<g filter="url(#filter0_d_39_612)">
<path d="M385.149 410.128C375.888 407.242 367.165 402.846 359.333 397.117C329.211 376.133 303.683 349.213 284.313 318.005C272.564 299.843 262.086 280.887 252.954 261.274C249.872 256.506 248.799 250.712 249.967 245.154C251.136 239.596 254.451 234.727 259.191 231.608C263.131 228.972 267.796 227.638 272.532 227.791C277.903 227.791 278.423 227.791 276.517 222.066L261.444 183.204C259.417 179.094 258.777 174.437 259.621 169.932C260.464 165.426 262.745 161.317 266.122 158.222C269.534 154.959 273.911 152.891 278.597 152.328C283.282 151.765 288.023 152.737 292.11 155.099C292.11 155.099 292.11 155.099 293.15 155.099C289.338 142.781 285.006 130.637 281.541 118.146C280.689 115.253 280.475 112.21 280.913 109.226C281.351 106.242 282.432 103.39 284.079 100.865C285.727 98.3409 287.903 96.205 290.456 94.6056C293.009 93.0062 295.879 91.9813 298.867 91.6019C303.978 90.4633 309.328 91.2022 313.94 93.6838L331.266 102.532C334.211 104.093 335.598 103.746 336.464 100.103C340.176 77.5429 346.095 55.4032 354.136 34.0035C357.934 23.6514 363.833 14.1998 371.461 6.24522C373.321 4.30355 375.554 2.75852 378.025 1.70306C380.496 0.647609 383.155 0.103539 385.842 0.103539C388.528 0.10354 391.187 0.647611 393.659 1.70307C396.13 2.75852 398.362 4.30355 400.222 6.24523C409.795 15.3907 417.349 26.442 422.399 38.6877C431.065 56.7727 438.138 75.581 443.536 94.8983C445.269 100.797 445.269 100.797 450.466 97.6741L466.233 88.1322C469.892 85.852 474.16 84.7463 478.464 84.9634C482.768 85.1804 486.903 86.7098 490.315 89.3466C493.794 91.7605 496.454 95.18 497.94 99.1482C499.426 103.116 499.667 107.444 498.631 111.553C496.206 121.616 493.607 131.678 491.182 141.74C491.182 143.649 490.315 145.731 489.795 147.986C492.048 147.986 493.261 147.119 494.82 146.425C498.454 144.876 502.454 144.397 506.351 145.042C510.247 145.687 513.88 147.43 516.823 150.068C519.999 152.469 522.376 155.774 523.644 159.551C524.911 163.328 525.01 167.4 523.927 171.234C520.808 182.51 516.997 193.614 513.705 204.717C512.665 208.187 511.452 211.483 510.586 214.779C509.72 218.076 510.586 220.157 514.918 219.811C517.992 219.409 521.117 219.679 524.077 220.601C527.038 221.523 529.764 223.075 532.068 225.152C534.373 227.229 536.201 229.781 537.427 232.632C538.654 235.483 539.25 238.567 539.174 241.67C539.101 244.899 538.394 248.082 537.094 251.039C520.945 293.101 497.872 332.156 468.832 366.582C454.655 383.074 437.637 396.883 418.587 407.352C418.587 407.352 417.374 407.352 416.681 407.352C406.67 411.356 395.704 412.322 385.149 410.128Z" fill="#033F59"/>
</g>
<path d="M405.42 295.973L408.711 292.677C423.265 277.41 437.645 261.969 452.026 246.529C453.174 245.005 454.719 243.826 456.491 243.123C458.264 242.419 460.195 242.217 462.074 242.538C463.941 242.863 465.673 243.727 467.055 245.025C468.437 246.323 469.409 247.998 469.851 249.844C470.293 251.689 470.186 253.623 469.543 255.408C468.9 257.193 467.749 258.75 466.232 259.887C447.521 279.839 428.982 299.963 410.098 319.915C408.771 321.141 407.739 322.652 407.078 324.334C406.418 326.017 406.147 327.827 406.286 329.63C407.152 348.193 407.672 366.757 408.192 385.32C408.192 390.872 408.192 390.872 413.389 387.922C431.235 376.944 446.963 362.84 459.822 346.285C484.207 315.229 503.988 280.813 518.556 244.1C520.462 239.763 518.556 238.548 514.398 238.895C510.727 239.416 506.985 238.978 503.534 237.622C500.083 236.266 497.041 234.039 494.704 231.157C492.367 228.276 490.814 224.838 490.197 221.178C489.58 217.517 489.919 213.76 491.181 210.269C495.339 196.564 499.671 183.032 503.829 169.499C503.829 167.938 503.829 164.815 503.829 164.815C503.829 164.815 500.364 164.815 498.978 165.856L483.038 177.306C478.36 180.776 473.682 184.593 467.792 180.603C461.901 176.612 465.02 164.642 465.02 164.642C465.02 164.642 474.202 128.209 478.707 110.166C478.707 108.258 480.439 106.002 478.707 104.614C476.974 103.226 475.069 104.614 473.336 106.176L446.654 122.137C438.165 127.168 432.274 124.739 429.329 115.371C423.798 94.8326 416.97 74.6672 408.885 54.9965C404.442 44.0082 398.62 33.631 391.559 24.1154C386.881 18.0433 384.282 18.3902 379.951 24.1154C374.318 33.4255 369.838 43.3876 366.61 53.782C359.279 74.9635 353.489 96.6484 349.284 118.667C349.222 120.409 348.684 122.102 347.729 123.559C346.773 125.017 345.437 126.185 343.866 126.936C342.295 127.687 340.548 127.993 338.815 127.819C337.082 127.646 335.43 127.001 334.038 125.954C324.682 121.443 315.153 117.279 306.144 112.074C304.238 110.86 301.986 108.778 299.733 110.513C297.481 112.248 299.733 114.85 299.733 116.932C305.624 135.842 311.688 154.579 317.925 173.316C318.828 175.388 319.009 177.704 318.437 179.891C317.865 182.078 316.575 184.008 314.774 185.371C312.972 186.733 310.765 187.449 308.508 187.402C306.251 187.356 304.076 186.549 302.332 185.113L283.62 173.49C281.888 172.449 279.982 170.02 277.903 171.928C275.824 173.837 277.903 176.092 277.903 178C283.101 191.532 288.472 204.718 293.323 218.423C294.47 221.67 294.815 225.147 294.328 228.556C293.842 231.966 292.539 235.207 290.53 238.002C288.521 240.798 285.867 243.065 282.793 244.61C279.719 246.155 276.317 246.933 272.878 246.876C265.948 246.876 265.428 246.876 268.547 253.815C284.237 286.386 304.098 316.771 327.627 344.203C342.759 362.356 361.376 377.282 382.376 388.096C387.228 390.525 387.401 390.351 387.228 385.147C387.228 366.41 385.842 347.673 385.322 328.936C385.384 327.363 385.089 325.796 384.458 324.354C383.828 322.911 382.879 321.631 381.683 320.608C364.358 304.3 347.032 287.819 329.706 271.338C326.241 268.041 322.776 264.918 319.658 261.449C318.06 259.798 317.166 257.589 317.166 255.29C317.166 252.991 318.06 250.782 319.658 249.131C321.256 247.359 323.459 246.252 325.832 246.027C328.206 245.802 330.577 246.476 332.479 247.917C333.824 248.862 335.098 249.905 336.29 251.039L379.431 291.636C380.547 293.184 382.124 294.338 383.936 294.932C384.369 293.166 384.369 291.32 383.936 289.554C383.936 270.297 382.55 251.039 382.203 231.955C382.246 230.048 381.864 228.156 381.085 226.415C380.306 224.675 379.149 223.13 377.698 221.893C367.476 212.698 357.601 203.33 347.725 193.788C346.212 192.698 345.045 191.195 344.362 189.459C343.68 187.722 343.512 185.826 343.877 183.996C344.243 182.166 345.127 180.48 346.423 179.14C347.72 177.8 349.375 176.862 351.19 176.439C352.99 175.979 354.882 176.027 356.656 176.578C358.429 177.129 360.016 178.162 361.239 179.562L379.951 196.911C381.337 195.176 379.951 193.614 379.951 192.226C379.951 178.174 379.084 164.121 378.738 150.069C378.738 143.129 382.03 138.792 387.921 138.445C393.811 138.098 397.623 142.262 397.969 149.375L399.529 190.492C399.529 192.226 399.529 194.308 400.742 196.043L405.939 190.665C410.271 185.981 414.602 181.123 419.28 176.439C420.77 174.922 422.731 173.958 424.841 173.706C426.951 173.454 429.084 173.928 430.888 175.051C432.611 175.985 433.982 177.456 434.795 179.24C435.608 181.024 435.817 183.025 435.393 184.94C434.921 187.423 433.642 189.68 431.755 191.359L404.38 220.679C403.112 221.868 402.127 223.327 401.497 224.949C400.867 226.57 400.609 228.312 400.742 230.047C400.742 244.273 401.608 258.499 402.128 272.725C404.726 281.053 405.246 288.166 405.42 295.973Z" fill="#1FA459"/>
<g filter="url(#filter1_d_39_612)">
<path d="M56.1349 530.704C44.9473 526.662 35.1888 519.424 28.0674 509.885C18.0283 499.569 10.4473 487.115 5.89059 473.452C4.85105 470.33 3.8116 467.207 2.59881 463.91C0.608192 458.791 -0.285953 453.31 -0.0254352 447.822C0.235083 442.335 1.64438 436.963 4.111 432.056C6.57763 427.149 10.0466 422.816 14.293 419.337C18.5394 415.859 23.4683 413.312 28.7604 411.864L67.5699 406.485C76.9257 403.883 98.7559 404.404 105.859 397.811C121.957 381.071 140.759 367.17 161.475 356.694C225.06 321.996 249.316 345.417 300.08 336.396C350.844 327.374 357.601 308.117 368.169 324.078C385.495 350.796 325.202 376.125 309.955 376.125C294.709 376.125 289.338 400.76 289.338 400.76C309.221 410.712 329.913 418.953 351.19 425.396C420.493 448.296 488.756 417.762 498.458 397.464C508.16 377.166 524.793 362.766 537.441 376.645C550.088 390.525 502.79 459.573 436.086 486.638C369.382 513.702 317.578 514.743 264.216 493.23C219.515 475.881 156.97 494.271 142.936 497.567C127.316 501.685 113.042 509.819 101.528 521.162C97.0737 525.444 91.7503 528.714 85.9202 530.749C80.0901 532.785 73.8903 533.539 67.7431 532.959C63.7892 532.74 59.8837 531.981 56.1349 530.704Z" fill="#033F59"/>
</g>
</g>
<defs>
<filter id="filter0_d_39_612" x="249.506" y="0.103516" width="318.674" height="440.172" filterUnits="userSpaceOnUse" color-interpolation-filters="sRGB">
<feFlood flood-opacity="0" result="BackgroundImageFix"/>
<feColorMatrix in="SourceAlpha" type="matrix" values="0 0 0 0 0 0 0 0 0 0 0 0 0 0 0 0 0 0 127 0" result="hardAlpha"/>
<feOffset dx="25" dy="25"/>
<feGaussianBlur stdDeviation="2"/>
<feComposite in2="hardAlpha" operator="out"/>
<feColorMatrix type="matrix" values="0 0 0 0 0 0 0 0 0 0 0 0 0 0 0 0 0 0 0.25 0"/>
<feBlend mode="normal" in2="BackgroundImageFix" result="effect1_dropShadow_39_612"/>
<feBlend mode="normal" in="SourceGraphic" in2="effect1_dropShadow_39_612" result="shape"/>
</filter>
<filter id="filter1_d_39_612" x="-0.0695801" y="317.955" width="568.562" height="239.193" filterUnits="userSpaceOnUse" color-interpolation-filters="sRGB">
<feFlood flood-opacity="0" result="BackgroundImageFix"/>
<feColorMatrix in="SourceAlpha" type="matrix" values="0 0 0 0 0 0 0 0 0 0 0 0 0 0 0 0 0 0 127 0" result="hardAlpha"/>
<feOffset dx="25" dy="20"/>
<feGaussianBlur stdDeviation="2"/>
<feComposite in2="hardAlpha" operator="out"/>
<feColorMatrix type="matrix" values="0 0 0 0 0 0 0 0 0 0 0 0 0 0 0 0 0 0 0.25 0"/>
<feBlend mode="normal" in2="BackgroundImageFix" result="effect1_dropShadow_39_612"/>
<feBlend mode="normal" in="SourceGraphic" in2="effect1_dropShadow_39_612" result="shape"/>
</filter>
<clipPath id="clip0_39_612">
<rect width="639.813" height="534" fill="white"/>
</clipPath>
</defs>
</svg>
